<svg width="225" height="76" viewBox="0 0 225 76" fill="none" xmlns="http://www.w3.org/2000/svg">
<path d="M112.5 0H225C225 25.1417 225 50.2835 225 75.4252H112.5V71.3741H220.948V4.05111H112.5V0Z" fill="black"/>
<path d="M112.5 4.05111H4.05111V71.3741H112.5V75.4252H0V0H112.5V4.05111Z" fill="white"/>
<path d="M26.3311 48.2519H29.9445V41.1153H32.8655C38.0448 41.1153 41.0861 38.0739 41.0861 34.1593C41.0861 30.2748 38.0448 27.1732 32.8955 27.1732H26.3311V48.2519ZM29.9445 38.2245V30.064H32.6848C35.8466 30.064 37.4425 31.8708 37.4425 34.1593C37.4425 36.4479 35.8767 38.2245 32.6848 38.2245H29.9445ZM47.2893 48.2519H50.9028V41.1153H54.3055L58.8525 48.2519H62.9177L57.8287 40.3926C60.5389 39.2484 62.0444 36.9296 62.0444 34.1593C62.0444 30.2748 59.0031 27.1732 53.8538 27.1732H47.2893V48.2519ZM50.9028 38.2245V30.064H53.6431C56.8049 30.064 58.4008 31.8708 58.4008 34.1593C58.4008 36.4479 56.835 38.2245 53.6431 38.2245H50.9028ZM69.5726 48.2519H73.1861V27.1732H69.5726V48.2519Z" fill="white"/>
<path d="M80.925 48.5079H84.4783V35.8118L92.7009 44.6198H93.0321L100.984 35.8118V48.5079H104.537V26.9173H104.236L92.8815 39.4893L81.2261 26.9173H80.925V48.5079Z" fill="white"/>
<path d="M111.222 48.2519H125.254V45.1203H114.835V39.7H123.749V36.5683H114.835V30.3049H124.953V27.1732H111.222V48.2519ZM140.883 48.7337C144.135 48.7337 146.725 47.4088 148.772 45.3913L146.996 42.7715C145.58 44.0965 143.502 45.4816 140.853 45.4816C136.787 45.4816 133.626 42.2596 133.626 37.7126C133.626 33.1957 136.727 29.9135 140.822 29.9135C142.9 29.9135 144.918 30.7566 146.574 32.1719L148.381 29.6425C146.363 27.6249 143.743 26.6613 140.913 26.6613C134.74 26.6613 129.982 31.2986 129.982 37.7126C129.982 44.0965 134.74 48.7337 140.883 48.7337ZM163.828 48.7337C169.851 48.7337 174.729 44.0965 174.729 37.7126C174.729 31.2986 169.851 26.6613 163.828 26.6613C157.836 26.6613 152.958 31.2986 152.958 37.7126C152.958 44.0965 157.836 48.7337 163.828 48.7337ZM163.859 45.4816C159.914 45.4816 156.632 42.2596 156.632 37.7126C156.632 33.1355 159.914 29.9135 163.859 29.9135C167.864 29.9135 171.086 33.1355 171.086 37.7126C171.086 42.2596 167.864 45.4816 163.859 45.4816ZM198.337 48.8542H198.669V27.1732H195.115V40.6937L181.535 26.571H181.203V48.2519H184.757V34.882L198.337 48.8542Z" fill="white"/>
</svg>
