<svg width="169" height="169" viewBox="0 0 169 169" fill="none" xmlns="http://www.w3.org/2000/svg">
<rect width="169" height="169" rx="20" fill="#212D92"/>
<path d="M82.6816 22H144.865C144.866 63.1417 144.866 104.284 144.865 145.425H82.6816V138.796H138.235V28.6292H82.6816V22Z" fill="white"/>
<path d="M83.4998 28.6292H28.7643V138.796H83.4998V145.425H22.1351V22H83.4998V28.6292Z" fill="white"/>
<path d="M63 114H73.5306V93.6859H82.0429C97.1368 93.6859 106 85.0286 106 73.8857C106 62.8286 97.1368 54 82.1306 54H63V114ZM73.5306 85.4573V62.2286H81.5164C90.7307 62.2286 95.3816 67.3715 95.3816 73.8857C95.3816 80.4001 90.8183 85.4573 81.5164 85.4573H73.5306Z" fill="white"/>
</svg>
